<svg width="1301" height="307" viewBox="0 0 1301 307" fill="none" xmlns="http://www.w3.org/2000/svg">
<path d="M116.87 151.612C98.2154 176.96 108.276 229.226 127.306 250.957C150.428 277.328 164.309 282.207 221.672 289.235C216.744 293.557 210.824 296.592 204.438 298.068C198.053 299.544 191.402 299.416 185.078 297.695C154.146 290.872 126.794 276.339 111.959 247.238C98.0004 220.759 94.3549 190.041 101.728 161.028C106.025 144.141 118.303 132.917 133.342 125.002C134.972 123.988 136.788 123.31 138.684 123.009C140.58 122.709 142.516 122.792 144.379 123.253C146.243 123.714 147.994 124.544 149.531 125.695C151.068 126.845 152.359 128.291 153.327 129.949C152.611 130.529 151.861 131.655 151.076 131.655C128.909 132.405 127.988 132.201 123.384 154.137C118.234 178.803 118.575 203.298 133.99 225.234C135.559 227.486 136.889 229.908 138.287 232.262C157.522 265.32 202.13 277.874 237.189 261.192C251.206 254.369 264.472 247.273 269.656 232.296C273.407 221.481 274.158 209.541 275.556 198.18C278.659 172.184 269.792 148.44 260.652 124.9C250.783 99.7539 236.495 76.5768 218.466 56.4642C203.903 39.9863 188.216 22.7921 166.901 17.3677C145.586 11.9434 123.555 5.52962 101.148 14.3656C93.1098 17.2852 84.8538 19.5667 76.457 21.1887C90.3714 10.954 105.548 3.89207 123.111 4.13088C155.506 4.15104 186.749 16.1567 210.827 37.8371C243.805 66.1189 258.06 104.124 274.362 141.31C286.571 169.182 285.821 199.613 280.467 229.055C275.522 256.347 257.106 269.448 228.97 275.725C207.961 279.966 186.204 278.566 165.912 271.665C157.178 268.576 149.365 263.331 143.198 256.416C129.148 240.961 117.041 223.767 113.971 202.274C111.959 188.082 110.356 173.685 115.813 159.664C116.483 157.031 116.838 154.329 116.87 151.612Z" fill="white"/>
<path d="M145.314 224.889C158.205 236.489 173.518 235.977 188.865 235.465C224.674 234.237 246.841 203.806 242.578 167.882C238.861 137.69 227.846 109.886 217.444 82.4225C212.84 70.1409 199.164 58.7463 186.75 52.4691C164.282 40.9369 138.601 37.2618 113.802 42.0297C96.75 45.4413 80.1414 50.8997 66.4657 63.0108C58.3149 70.2433 49.0727 76.2135 40.308 82.7296C38.507 83.7245 36.8445 84.9519 35.363 86.38C24.5861 100.026 13.9457 113.672 3.06653 127.319C0.338217 109.851 11.8995 99.5486 22.1988 89.7915C43.9913 68.9128 66.534 48.4093 95.8975 38.6182C117.076 31.488 138.596 29.2364 160.217 37.2535C163.044 38.5305 166.043 39.3812 169.119 39.7781C189.308 40.938 202.199 51.5139 216.182 66.3883C238.402 89.8004 254.406 118.407 262.734 149.596C269.598 172.654 269.893 197.17 263.587 220.386C259.221 235.704 248.547 244.779 236.303 252.489C217.478 264.327 197.629 262.723 177.645 253.819C186.136 253.171 194.697 252.352 203.086 251.909C232.825 250.237 258.471 225.537 259.392 196.949C260.312 168.36 253.424 141.442 242.169 115.481C240.504 111.972 238.518 108.626 236.235 105.485C240.941 125.101 248.103 146.594 250.627 168.633C252.351 183.883 250.35 199.325 244.795 213.631C235.758 235.806 214.579 243.209 192.071 244.847C178.19 245.87 163.56 247.644 151.521 237.751C148.43 234.699 145.674 231.326 143.302 227.687L145.314 224.889Z" fill="white"/>
<path d="M167.751 98.1796C156.463 82.2135 137.638 77.7103 116.971 84.3628C105.77 87.7418 95.3769 93.3729 86.4281 100.911C77.4793 108.449 70.1632 117.736 64.9281 128.201C55.1293 146.573 46.7715 165.679 39.9299 185.345C32.6998 207.077 34.5074 229.9 38.3952 252.246C24.7536 243.683 20.934 233.073 24.9923 217.755C29.4599 201.004 32.0859 183.639 37.2356 167.264C44.8855 142.208 58.1207 119.217 75.9436 100.022C83.9122 91.0971 93.8284 84.1283 104.924 79.6556C116.019 75.1829 127.995 73.3265 139.923 74.2305C167.785 76.6527 184.531 96.0645 194.864 120.867C202.299 138.641 206.016 157.302 198.547 175.793C196.365 181.183 189.748 186.027 184.019 188.484C172.696 193.328 155.474 183.98 154.758 173.712C161.597 176.108 168.608 177.978 175.732 179.307C186.338 180.501 192.272 174.496 192.477 163.989C192.477 158.052 192.886 152.116 192.477 146.249C190.328 116.67 169.047 105.31 144.731 98.6572C137.228 96.6103 127.918 98.4866 120.108 100.772C95.4511 107.937 79.7974 125.233 69.498 148.193C54.6969 181.217 53.742 215.367 61.3131 250.028C63.7685 261.116 68.6113 271.691 72.4309 282.779C61.4153 278.856 54.2876 272.033 51.9686 259.956C41.7374 207.657 45.7275 158.087 81.8777 115.715C89.6222 107.098 98.9552 100.055 109.365 94.9728C128.839 85.0111 148.858 83.7828 167.751 98.1796Z" fill="white"/>
<path d="M123.998 303.352C110.118 299.941 94.0888 299.736 87.6431 280.87C84.983 273.058 78.742 266.576 75.1952 258.968C63.4635 233.756 64.964 206.976 67.0785 180.297C67.973 168.648 71.2318 157.304 76.6556 146.957C82.0795 136.61 89.5546 127.478 98.6246 120.117C128.602 94.8037 149.781 100.433 177.643 125.405C186.306 133.184 189.341 146.25 186.954 158.702C186.501 162.366 184.668 165.718 181.829 168.076C178.99 170.435 175.358 171.621 171.675 171.393C162.57 171.393 157.522 165.252 154.998 157.099C154.691 156.041 156.363 154.404 157.045 153.141C158.272 153.482 159.159 153.448 159.5 153.858C164.002 159.248 168.572 165.355 176.552 159.487C181.463 155.836 179.963 139.359 174.54 133.491C151.588 108.006 125.021 109.985 106.332 138.642C90.5761 162.523 88.3252 188.519 92.6906 216.46C97.431 246.618 115.097 267.633 136.446 286.84C141.596 291.412 149.03 293.493 155.578 296.393C160.762 298.678 166.185 300.452 172.835 302.943C157.965 309.391 150.394 308.026 132.592 294.857C101.899 272 83.3461 242.388 82.4935 202.745C81.7773 170.95 87.4727 142.054 112.675 119.333C108.422 121.795 104.473 124.749 100.91 128.135C87.268 144.544 75.2634 161.602 76.7299 184.903C77.4461 196.605 73.3195 208.784 75.2293 220.213C79.9121 243.25 90.4077 264.706 105.718 282.542C111.277 290.047 117.962 296.7 123.998 303.352Z" fill="white"/>
<path d="M137.946 142.061C136.787 149.737 135.389 157.413 134.536 165.123C132.626 184.023 136.173 201.149 153.839 211.657C169.868 221.209 200.561 217.934 214.1 205.277C218.594 201.094 221.741 195.666 223.138 189.686C228.853 159.108 223.676 127.494 208.507 100.338C203.905 91.77 198.827 83.467 193.297 75.4674C187.397 67.0749 178.087 63.9704 168.776 60.2518C140.061 48.7207 112.607 52.5758 86.654 66.6996C76.1841 72.3628 67.9651 82.3587 59.1662 90.8194C50.3674 99.28 40.5114 107.468 33.7247 117.532C23.1866 133.191 10.2953 147.929 6.95313 167.648C5.78567 170.659 4.189 173.486 2.21268 176.04C-1.19771 162.394 -1.19772 151.852 6.68029 140.253C24.619 113.916 44.3992 89.523 69.7726 70.1454C96.169 49.9489 124.953 43.3305 158.647 49.676C192.342 56.0215 209.155 75.9791 220.273 105.796C228.799 128.585 235.211 151.75 233.642 175.767C231.869 203.264 230.232 212.646 200.664 222.13C183.612 227.555 167.173 228.1 150.804 219.81C140.061 214.386 131.296 206.812 129.966 194.77C128.641 179.934 128.288 165.028 128.909 150.146C128.909 146.939 132.592 143.801 134.536 140.628L137.946 142.061Z" fill="white"/>
<path d="M169.832 151.983C169.15 151.983 168.331 152.221 167.82 151.983C163.796 149.697 159.805 147.309 155.815 144.955C153.326 149.595 149.404 153.995 148.654 158.908C146.88 170.405 145.243 182.789 156.463 191.011C169.593 200.666 185.111 200.154 199.025 191.761C209.256 185.655 208.54 175.249 209.256 166.311C211.198 141.432 204.698 116.624 190.806 95.8966C174.572 70.4805 135.421 60.8258 107.797 72.2546C74.3069 86.1396 54.6289 112.136 39.5891 143.147C38.6309 145.729 37.396 148.2 35.9058 150.516C23.0828 167.096 19.0585 186.815 15.4435 206.704C15.1024 208.546 14.5909 210.389 13.977 212.981C5.79209 200.256 7.39494 176.989 15.5458 166.448C20.5435 159.993 24.7458 152.96 28.062 145.501C41.9582 113.067 66.4028 86.2813 97.4294 69.4912C125.395 54.378 155.611 54.2415 181.496 74.2674C192.818 83.001 201.037 97.2613 207.244 110.6C213.29 123.996 216.938 138.349 218.021 153.006C218.942 165.492 215.668 178.593 212.598 191.045C210.62 199.028 203.083 201.894 195.137 204.691C165.603 215.369 139.582 198.277 140.025 167.164C139.932 160.994 140.69 154.841 142.276 148.878C142.938 146.647 144.055 144.577 145.558 142.8C147.061 141.023 148.916 139.577 151.006 138.554C153.096 137.531 155.375 136.953 157.7 136.857C160.025 136.761 162.344 137.148 164.512 137.995C171.162 140.69 172.901 145.262 169.832 151.983Z" fill="white"/>
<path d="M307.033 162.869C280.227 90.3739 236.71 32.9233 165.16 0.51346C180.268 -2.04521 210.859 10.5093 223.614 24.3944C234.562 36.4713 246.532 47.627 256.695 60.2839C266.858 72.9408 275.452 86.7917 284.422 100.336C290.253 109.172 294.38 119.338 301.201 127.253C310.852 138.682 307.135 150.793 307.033 162.869Z" fill="white"/>
<path d="M18.8193 77.9928C39.5886 44.8666 69.8047 28.2863 106.739 20.5762C133.522 14.8025 161.496 19.3467 185.076 33.3014L184.223 37.3611L162.056 30.538C133.988 21.7362 106.603 23.2714 81.1272 38.214C60.0851 50.3592 40.1343 64.2442 18.8193 77.9928Z" fill="white"/>
<path d="M292.916 221.109C294.11 193.577 292.302 167.377 281.15 142.438C273.341 124.937 264.849 107.743 256.766 90.3436C255.163 86.932 254.004 83.2476 252.605 79.7337L255.538 78.3008C259.836 85.3968 264.474 92.2881 268.396 99.5889C275.73 112.193 282.279 125.239 288.005 138.651C294.246 155.129 300.521 172.153 302.499 189.415C303.659 199.479 296.395 210.499 292.916 221.109Z" fill="white"/>
<path d="M228.832 20.1992C246.339 29.0587 261.753 41.5543 274.045 56.8508C286.337 72.1473 295.223 89.8923 300.109 108.9C296.903 103.339 293.732 97.7439 290.424 92.2172C287.423 86.4805 284.003 80.973 280.193 75.7394C274.258 68.541 267.369 62.0931 261.026 55.27C250.113 43.466 239.643 31.7303 228.832 20.1992Z" fill="white"/>
<path d="M357.057 194.905L375.333 173.024C385.317 181.756 398.28 187.77 409.855 187.77C423.122 187.77 429.62 182.504 429.62 174.179C429.62 165.277 421.632 162.423 409.313 157.36L391.037 149.545C376.484 143.599 362.675 131.571 362.675 111.049C362.675 87.6721 383.489 68.9844 412.765 68.9844C429.658 69.0112 445.876 75.6409 457.982 87.4682L441.939 107.583C433.802 100.587 423.478 96.6789 412.765 96.5402C401.799 96.5402 394.827 101.127 394.827 109.18C394.827 117.844 403.999 121.004 416.285 125.897L434.223 133.202C451.382 140.167 462.111 151.652 462.111 171.597C462.111 195.041 442.616 215.36 409.11 215.36C389.828 215.279 371.269 207.987 357.057 194.905Z" fill="white"/>
<path d="M473.401 105.355H499.605L501.937 115.969H502.726C511.076 108.024 522.038 103.337 533.595 102.77C559.867 102.77 575.919 124.304 575.919 157.473C575.919 194.384 553.797 215.579 530.302 215.579C520.542 215.297 511.272 211.273 504.441 204.352L505.504 221.362V252.898H473.366L473.401 105.355ZM543.027 157.813C543.027 138.524 537.025 128.863 524.197 128.863C517.577 128.863 511.884 131.788 505.538 138.49V182.716C510.219 186.995 516.323 189.416 522.688 189.52C534.041 189.486 543.027 180.096 543.027 157.813Z" fill="white"/>
<path d="M587.176 73.1168C587.176 63.3703 594.797 56.4766 605.293 56.4766C615.79 56.4766 623.445 63.2685 623.445 73.1168C623.445 82.9651 615.79 89.757 605.293 89.757C594.797 89.757 587.176 82.6594 587.176 73.1168ZM589.583 105.446H620.937V212.861H589.583V105.446Z" fill="white"/>
<path d="M639.703 105.394H666.265L668.611 124.183H669.405C677.339 109.845 689.275 102.812 700.452 102.812C704.908 102.578 709.361 103.321 713.491 104.986L708.11 132.44C704.269 131.37 700.303 130.799 696.312 130.741C688.102 130.741 678.098 135.939 672.164 150.584V212.864H639.703V105.394Z" fill="white"/>
<path d="M714.742 73.1168C714.742 63.3703 722.371 56.4766 732.877 56.4766C743.382 56.4766 751.011 63.2685 751.011 73.1168C751.011 82.9651 743.382 89.757 732.877 89.757C722.371 89.757 714.742 82.6594 714.742 73.1168ZM717.151 105.446H748.502V212.861H717.151V105.446Z" fill="white"/>
<path d="M770.812 173.271V129.394H756.013V105.342L772.627 104.105L776.361 75.2422H802.91V104.105H828.876V129.394H802.91V172.893C802.91 185.228 808.494 190.073 816.955 190.073C820.468 189.967 823.94 189.282 827.232 188.046L832.302 211.411C824.569 213.999 816.474 215.333 808.323 215.362C781.328 215.431 770.812 198.457 770.812 173.271Z" fill="white"/>
<path d="M867.32 194.905L886.003 173.024C896.402 181.756 909.538 187.77 921.393 187.77C934.98 187.77 941.635 182.504 941.635 174.179C941.635 165.277 933.455 162.423 920.838 157.36L902.121 149.545C887.181 143.599 873.039 131.571 873.039 111.049C873.039 87.6721 894.356 68.9844 924.339 68.9844C941.651 69.0024 958.275 75.6327 970.682 87.4682L954.217 107.583C945.887 100.582 935.311 96.6731 924.339 96.5402C913.108 96.5402 905.968 101.127 905.968 109.18C905.968 117.844 915.396 121.004 927.944 125.897L946.314 133.202C963.888 140.167 974.876 151.652 974.876 171.597C974.876 195.041 954.945 215.36 920.63 215.36C900.881 215.292 881.869 207.998 867.32 194.905Z" fill="white"/>
<path d="M984.503 173.271V129.394H969.873V105.342L986.189 104.105L989.897 75.2422H1016.02V104.105H1041.57V129.394H1016.02V172.893C1016.02 185.228 1021.48 190.073 1029.81 190.073C1033.27 189.963 1036.68 189.279 1039.92 188.046L1044.91 211.411C1037.3 213.999 1029.34 215.333 1021.31 215.362C994.987 215.431 984.503 198.457 984.503 173.271Z" fill="white"/>
<path d="M1050.55 251.957L1056.21 227.596C1058.56 228.331 1060.99 228.789 1063.44 228.961C1073.92 228.961 1079.42 223.161 1082.2 214.802L1083.79 209.172L1042.41 104.02H1074.36L1089.69 150.455C1092.78 160.247 1095.32 170.482 1098.14 181.161H1098.95C1101.33 170.926 1103.73 160.69 1106.41 150.455L1119.44 104.02H1149.97L1112.66 213.198C1102.48 240.22 1091.02 254.14 1065.81 254.14C1060.64 254.235 1055.49 253.498 1050.55 251.957Z" fill="white"/>
<path d="M1156.22 178.855V58.9766H1188.75V180.197C1188.75 187.08 1191.98 189.283 1194.65 189.283C1195.98 189.323 1197.31 189.184 1198.61 188.87L1202.49 212.653C1197.29 214.608 1191.74 215.521 1186.18 215.338C1163.86 215.338 1156.22 200.882 1156.22 178.855Z" fill="white"/>
<path d="M1202.49 159.102C1202.49 124.263 1227.65 102.77 1253.76 102.77C1284.68 102.77 1300.04 125.01 1300.04 154.314C1300.07 159.032 1299.62 163.741 1298.7 168.372H1233.69C1236.58 183.957 1247.44 191.088 1261.87 191.088C1270.2 190.94 1278.34 188.52 1285.37 184.093L1296.02 203.244C1284.64 210.918 1271.24 215.132 1257.47 215.366C1226.48 215.366 1202.49 194.619 1202.49 159.102ZM1272.55 147.319C1272.55 135.537 1267.33 126.946 1254.48 126.946C1244.17 126.946 1235.51 133.737 1233.31 147.319H1272.55Z" fill="white"/>
<path d="M285.769 211.841H282.01C276.164 211.841 270.326 211.408 264.544 210.544C262.972 210.339 261.399 210.1 259.827 209.793C241.965 206.444 225.091 199.111 210.461 188.342C195.832 177.573 183.825 163.644 175.335 147.595C173.421 143.977 171.678 140.256 170.106 136.432C171.545 141.541 172.484 146.777 172.909 152.067C173.079 154.252 173.182 156.437 173.182 158.69C173.209 170.169 170.552 181.496 165.423 191.768C166.841 208.526 173.957 224.294 185.589 236.454C175.291 241.536 163.953 244.165 152.466 244.136C140.979 244.106 129.655 241.418 119.383 236.283C121.954 233.572 124.319 230.674 126.459 227.612C133.797 217.113 138.284 204.893 139.481 192.144C134.23 181.785 131.501 170.335 131.517 158.724C131.511 156.387 131.625 154.051 131.859 151.726C132.288 146.934 133.204 142.199 134.593 137.593C133.124 141.007 131.517 144.42 129.74 147.834C119.036 167.957 102.849 184.644 83.0505 195.967C71.2152 202.763 58.3026 207.485 44.872 209.929L44.3935 209.417C44.3765 209.622 44.3765 209.827 44.3935 210.032C37.376 211.281 30.2619 211.909 23.1338 211.909C23.3531 201.511 24.9154 191.185 27.7822 181.186C36.001 152.621 54.4572 128.076 79.6326 112.229C91.2513 104.931 104.038 99.677 117.435 96.6969C122.67 95.5218 127.981 94.7119 133.329 94.2731C133.329 93.7951 133.329 93.2831 133.089 92.8052C132.896 91.5401 132.804 90.2616 132.816 88.9819C132.782 83.1192 134.638 77.4013 138.11 72.6737C141.582 67.9462 146.484 64.4599 152.093 62.7305C157.696 64.4659 162.591 67.9548 166.056 72.6819C169.521 77.4089 171.372 83.1235 171.336 88.9819C171.331 90.3631 171.24 91.7426 171.063 93.1124C171.063 93.3855 171.063 93.6927 170.892 93.9658C176.295 94.1973 181.675 94.8134 186.991 95.8093C201.645 98.4863 215.67 103.87 228.348 111.683C251.694 126.052 269.468 147.908 278.763 173.676C283.156 185.934 285.523 198.824 285.769 211.841Z" fill="black"/>
</svg>
